<mxfile host="app.diagrams.net" modified="2023-10-15T18:50:14.107Z" agent="Mozilla/5.0 (Windows NT 10.0; Win64; x64) AppleWebKit/537.36 (KHTML, like Gecko) Chrome/116.0.0.0 Safari/537.36 OPR/102.0.0.0" etag="c53qJWJsaqRORw7nWqpy" version="22.0.4" type="device">
  <diagram name="Stránka-1" id="Xdsy9pXVNi_mmItFo26f">
    <mxGraphModel dx="996" dy="567" grid="1" gridSize="10" guides="1" tooltips="1" connect="1" arrows="1" fold="1" page="1" pageScale="1" pageWidth="1169" pageHeight="827" math="0" shadow="0">
      <root>
        <mxCell id="0" />
        <mxCell id="1" parent="0" />
        <mxCell id="yhHHksBqvPcdO-rfipyX-5" value="VOTED" style="rounded=0;orthogonalLoop=1;jettySize=auto;html=1;exitX=1;exitY=0.5;exitDx=0;exitDy=0;entryX=0;entryY=0.5;entryDx=0;entryDy=0;endArrow=none;endFill=0;fontSize=20;" edge="1" parent="1" source="yhHHksBqvPcdO-rfipyX-1" target="yhHHksBqvPcdO-rfipyX-2">
          <mxGeometry relative="1" as="geometry" />
        </mxCell>
        <mxCell id="yhHHksBqvPcdO-rfipyX-1" value="&lt;b&gt;Hlasování (Voting)&lt;/b&gt;&lt;br&gt;- code&lt;br&gt;- number&lt;br&gt;- date&lt;br&gt;- time&lt;br&gt;- subject&lt;br&gt;- result" style="ellipse;whiteSpace=wrap;html=1;aspect=fixed;fontSize=15;" vertex="1" parent="1">
          <mxGeometry x="80" y="80" width="200" height="200" as="geometry" />
        </mxCell>
        <mxCell id="yhHHksBqvPcdO-rfipyX-4" value="IS_MEMBER" style="rounded=0;orthogonalLoop=1;jettySize=auto;html=1;exitX=0;exitY=1;exitDx=0;exitDy=0;entryX=1;entryY=0;entryDx=0;entryDy=0;fontSize=20;" edge="1" parent="1" source="yhHHksBqvPcdO-rfipyX-2" target="yhHHksBqvPcdO-rfipyX-3">
          <mxGeometry relative="1" as="geometry" />
        </mxCell>
        <mxCell id="yhHHksBqvPcdO-rfipyX-2" value="&lt;font style=&quot;font-size: 15px;&quot;&gt;&lt;b&gt;Zastupitel (Representative)&lt;/b&gt;&lt;br&gt;- name&lt;br&gt;- surname&lt;br&gt;&lt;/font&gt;" style="ellipse;whiteSpace=wrap;html=1;aspect=fixed;" vertex="1" parent="1">
          <mxGeometry x="650" y="80" width="170" height="170" as="geometry" />
        </mxCell>
        <mxCell id="yhHHksBqvPcdO-rfipyX-3" value="&lt;b&gt;Politický subjekt (Party)&lt;/b&gt;&lt;br&gt;- name" style="ellipse;whiteSpace=wrap;html=1;aspect=fixed;fontSize=15;" vertex="1" parent="1">
          <mxGeometry x="350" y="390" width="170" height="170" as="geometry" />
        </mxCell>
      </root>
    </mxGraphModel>
  </diagram>
</mxfile>
